<svg width="1479" height="1027" viewBox="0 0 1479 1027" fill="none" xmlns="http://www.w3.org/2000/svg">
<rect y="2.12738" width="60" height="1024" transform="rotate(-0.0847473 0 2.12738)" fill="url(#paint0_linear_249_2)" fill-opacity="0.3" style="mix-blend-mode:overlay"/>
<rect x="61.5146" y="1.98541" width="60" height="1024" transform="rotate(-0.0847473 61.5146 1.98541)" fill="url(#paint1_linear_249_2)" fill-opacity="0.3" style="mix-blend-mode:overlay"/>
<rect x="123.029" y="1.84357" width="60" height="1024" transform="rotate(-0.0847473 123.029 1.84357)" fill="url(#paint2_linear_249_2)" fill-opacity="0.3" style="mix-blend-mode:overlay"/>
<rect x="184.544" y="1.70148" width="60" height="1024" transform="rotate(-0.0847473 184.544 1.70148)" fill="url(#paint3_linear_249_2)" fill-opacity="0.3" style="mix-blend-mode:overlay"/>
<rect x="246.059" y="1.55939" width="60" height="1024" transform="rotate(-0.0847473 246.059 1.55939)" fill="url(#paint4_linear_249_2)" fill-opacity="0.3" style="mix-blend-mode:overlay"/>
<rect x="307.573" y="1.41754" width="60" height="1024" transform="rotate(-0.0847473 307.573 1.41754)" fill="url(#paint5_linear_249_2)" fill-opacity="0.3" style="mix-blend-mode:overlay"/>
<rect x="369.088" y="1.27545" width="60" height="1024" transform="rotate(-0.0847473 369.088 1.27545)" fill="url(#paint6_linear_249_2)" fill-opacity="0.3" style="mix-blend-mode:overlay"/>
<rect x="430.603" y="1.13361" width="60" height="1024" transform="rotate(-0.0847473 430.603 1.13361)" fill="url(#paint7_linear_249_2)" fill-opacity="0.3" style="mix-blend-mode:overlay"/>
<rect x="492.117" y="0.991516" width="60" height="1024" transform="rotate(-0.0847473 492.117 0.991516)" fill="url(#paint8_linear_249_2)" fill-opacity="0.3" style="mix-blend-mode:overlay"/>
<rect x="553.632" y="0.849426" width="60" height="1024" transform="rotate(-0.0847473 553.632 0.849426)" fill="url(#paint9_linear_249_2)" fill-opacity="0.3" style="mix-blend-mode:overlay"/>
<rect x="615.146" y="0.707581" width="60" height="1024" transform="rotate(-0.0847473 615.146 0.707581)" fill="url(#paint10_linear_249_2)" fill-opacity="0.3" style="mix-blend-mode:overlay"/>
<rect x="676.661" y="0.565491" width="60" height="1024" transform="rotate(-0.0847473 676.661 0.565491)" fill="url(#paint11_linear_249_2)" fill-opacity="0.3" style="mix-blend-mode:overlay"/>
<rect x="738.176" y="0.423401" width="60" height="1024" transform="rotate(-0.0847473 738.176 0.423401)" fill="url(#paint12_linear_249_2)" fill-opacity="0.3" style="mix-blend-mode:overlay"/>
<rect x="799.69" y="0.281555" width="60" height="1024" transform="rotate(-0.0847473 799.69 0.281555)" fill="url(#paint13_linear_249_2)" fill-opacity="0.3" style="mix-blend-mode:overlay"/>
<rect x="861.205" y="0.139465" width="60" height="1024" transform="rotate(-0.0847473 861.205 0.139465)" fill="url(#paint14_linear_249_2)" fill-opacity="0.3" style="mix-blend-mode:overlay"/>
<rect x="923" y="0.0887756" width="60" height="1024" transform="rotate(-0.0847473 923 0.0887756)" fill="url(#paint15_linear_249_2)" fill-opacity="0.3" style="mix-blend-mode:overlay"/>
<rect x="985" y="0.0900879" width="60" height="1024" transform="rotate(-0.0847473 985 0.0900879)" fill="url(#paint16_linear_249_2)" fill-opacity="0.3" style="mix-blend-mode:overlay"/>
<rect x="1231" y="0.0900879" width="60" height="1024" transform="rotate(-0.0847473 1231 0.0900879)" fill="url(#paint17_linear_249_2)" fill-opacity="0.3" style="mix-blend-mode:overlay"/>
<rect x="1293" y="0.0908203" width="60" height="1024" transform="rotate(-0.0847473 1293 0.0908203)" fill="url(#paint18_linear_249_2)" fill-opacity="0.3" style="mix-blend-mode:overlay"/>
<rect x="1355" y="2.09082" width="60" height="1024" transform="rotate(-0.0847473 1355 2.09082)" fill="url(#paint19_linear_249_2)" fill-opacity="0.3" style="mix-blend-mode:overlay"/>
<rect x="1417" y="0.0906982" width="60" height="1024" transform="rotate(-0.0847473 1417 0.0906982)" fill="url(#paint20_linear_249_2)" fill-opacity="0.3" style="mix-blend-mode:overlay"/>
<rect x="1047" y="0.0909424" width="60" height="1024" transform="rotate(-0.0847473 1047 0.0909424)" fill="url(#paint21_linear_249_2)" fill-opacity="0.3" style="mix-blend-mode:overlay"/>
<rect x="1109" y="2.09094" width="60" height="1024" transform="rotate(-0.0847473 1109 2.09094)" fill="url(#paint22_linear_249_2)" fill-opacity="0.3" style="mix-blend-mode:overlay"/>
<rect x="1171" y="2.09094" width="60" height="1024" transform="rotate(-0.0847473 1171 2.09094)" fill="url(#paint23_linear_249_2)" fill-opacity="0.3" style="mix-blend-mode:overlay"/>
<defs>
<linearGradient id="paint0_linear_249_2" x1="-1.41104e-06" y1="471.189" x2="60" y2="471.189" gradientUnits="userSpaceOnUse">
<stop offset="0.1" stop-color="white" stop-opacity="0"/>
<stop offset="0.793269"/>
<stop offset="1" stop-color="white"/>
</linearGradient>
<linearGradient id="paint1_linear_249_2" x1="61.5146" y1="471.047" x2="121.515" y2="471.047" gradientUnits="userSpaceOnUse">
<stop stop-color="white" stop-opacity="0"/>
<stop offset="0.793269"/>
<stop offset="1" stop-color="white"/>
</linearGradient>
<linearGradient id="paint2_linear_249_2" x1="123.029" y1="470.905" x2="183.029" y2="470.905" gradientUnits="userSpaceOnUse">
<stop stop-color="white" stop-opacity="0"/>
<stop offset="0.793269"/>
<stop offset="1" stop-color="white"/>
</linearGradient>
<linearGradient id="paint3_linear_249_2" x1="184.544" y1="470.763" x2="244.544" y2="470.763" gradientUnits="userSpaceOnUse">
<stop stop-color="white" stop-opacity="0"/>
<stop offset="0.793269"/>
<stop offset="1" stop-color="white"/>
</linearGradient>
<linearGradient id="paint4_linear_249_2" x1="246.059" y1="470.621" x2="306.059" y2="470.621" gradientUnits="userSpaceOnUse">
<stop stop-color="white" stop-opacity="0"/>
<stop offset="0.793269"/>
<stop offset="1" stop-color="white"/>
</linearGradient>
<linearGradient id="paint5_linear_249_2" x1="307.573" y1="470.479" x2="367.573" y2="470.479" gradientUnits="userSpaceOnUse">
<stop stop-color="white" stop-opacity="0"/>
<stop offset="0.793269"/>
<stop offset="1" stop-color="white"/>
</linearGradient>
<linearGradient id="paint6_linear_249_2" x1="369.088" y1="470.337" x2="429.088" y2="470.337" gradientUnits="userSpaceOnUse">
<stop stop-color="white" stop-opacity="0"/>
<stop offset="0.793269"/>
<stop offset="1" stop-color="white"/>
</linearGradient>
<linearGradient id="paint7_linear_249_2" x1="430.603" y1="470.195" x2="490.603" y2="470.195" gradientUnits="userSpaceOnUse">
<stop stop-color="white" stop-opacity="0"/>
<stop offset="0.793269"/>
<stop offset="1" stop-color="white"/>
</linearGradient>
<linearGradient id="paint8_linear_249_2" x1="492.117" y1="470.053" x2="552.117" y2="470.053" gradientUnits="userSpaceOnUse">
<stop stop-color="white" stop-opacity="0"/>
<stop offset="0.793269"/>
<stop offset="1" stop-color="white"/>
</linearGradient>
<linearGradient id="paint9_linear_249_2" x1="553.632" y1="469.911" x2="613.632" y2="469.911" gradientUnits="userSpaceOnUse">
<stop stop-color="white" stop-opacity="0"/>
<stop offset="0.793269"/>
<stop offset="1" stop-color="white"/>
</linearGradient>
<linearGradient id="paint10_linear_249_2" x1="615.146" y1="469.769" x2="675.146" y2="469.769" gradientUnits="userSpaceOnUse">
<stop stop-color="white" stop-opacity="0"/>
<stop offset="0.793269"/>
<stop offset="1" stop-color="white"/>
</linearGradient>
<linearGradient id="paint11_linear_249_2" x1="676.661" y1="469.627" x2="736.661" y2="469.627" gradientUnits="userSpaceOnUse">
<stop stop-color="white" stop-opacity="0"/>
<stop offset="0.793269"/>
<stop offset="1" stop-color="white"/>
</linearGradient>
<linearGradient id="paint12_linear_249_2" x1="738.176" y1="469.485" x2="798.176" y2="469.485" gradientUnits="userSpaceOnUse">
<stop stop-color="white" stop-opacity="0"/>
<stop offset="0.793269"/>
<stop offset="1" stop-color="white"/>
</linearGradient>
<linearGradient id="paint13_linear_249_2" x1="799.69" y1="469.343" x2="859.69" y2="469.343" gradientUnits="userSpaceOnUse">
<stop stop-color="white" stop-opacity="0"/>
<stop offset="0.793269"/>
<stop offset="1" stop-color="white"/>
</linearGradient>
<linearGradient id="paint14_linear_249_2" x1="861.205" y1="469.201" x2="921.205" y2="469.201" gradientUnits="userSpaceOnUse">
<stop stop-color="white" stop-opacity="0"/>
<stop offset="0.793269"/>
<stop offset="1" stop-color="white"/>
</linearGradient>
<linearGradient id="paint15_linear_249_2" x1="923" y1="469.15" x2="983" y2="469.15" gradientUnits="userSpaceOnUse">
<stop stop-color="white" stop-opacity="0"/>
<stop offset="0.793269"/>
<stop offset="1" stop-color="white"/>
</linearGradient>
<linearGradient id="paint16_linear_249_2" x1="985" y1="469.152" x2="1045" y2="469.152" gradientUnits="userSpaceOnUse">
<stop stop-color="white" stop-opacity="0"/>
<stop offset="0.793269"/>
<stop offset="1" stop-color="white"/>
</linearGradient>
<linearGradient id="paint17_linear_249_2" x1="1231" y1="469.152" x2="1291" y2="469.152" gradientUnits="userSpaceOnUse">
<stop stop-color="white" stop-opacity="0"/>
<stop offset="0.793269"/>
<stop offset="1" stop-color="white"/>
</linearGradient>
<linearGradient id="paint18_linear_249_2" x1="1293" y1="469.152" x2="1353" y2="469.152" gradientUnits="userSpaceOnUse">
<stop stop-color="white" stop-opacity="0"/>
<stop offset="0.793269"/>
<stop offset="1" stop-color="white"/>
</linearGradient>
<linearGradient id="paint19_linear_249_2" x1="1355" y1="471.152" x2="1415" y2="471.152" gradientUnits="userSpaceOnUse">
<stop stop-color="white" stop-opacity="0"/>
<stop offset="0.793269"/>
<stop offset="1" stop-color="white"/>
</linearGradient>
<linearGradient id="paint20_linear_249_2" x1="1417" y1="469.152" x2="1477" y2="469.152" gradientUnits="userSpaceOnUse">
<stop stop-color="white" stop-opacity="0"/>
<stop offset="0.793269"/>
<stop offset="1" stop-color="white"/>
</linearGradient>
<linearGradient id="paint21_linear_249_2" x1="1047" y1="469.152" x2="1107" y2="469.152" gradientUnits="userSpaceOnUse">
<stop stop-color="white" stop-opacity="0"/>
<stop offset="0.793269"/>
<stop offset="1" stop-color="white"/>
</linearGradient>
<linearGradient id="paint22_linear_249_2" x1="1109" y1="471.152" x2="1169" y2="471.152" gradientUnits="userSpaceOnUse">
<stop stop-color="white" stop-opacity="0"/>
<stop offset="0.793269"/>
<stop offset="1" stop-color="white"/>
</linearGradient>
<linearGradient id="paint23_linear_249_2" x1="1171" y1="471.152" x2="1231" y2="471.152" gradientUnits="userSpaceOnUse">
<stop stop-color="white" stop-opacity="0"/>
<stop offset="0.793269"/>
<stop offset="1" stop-color="white"/>
</linearGradient>
</defs>
</svg>
