<svg width="43" height="50" viewBox="0 0 43 50" fill="none" xmlns="http://www.w3.org/2000/svg">
<path d="M3.91194 45.0018L0 0H43L39.0828 44.9946L21.4739 50L3.91194 45.0018Z" fill="#1572B6"/>
<path d="M21.5 46.1753L35.73 42.1307L39.0776 3.68066H21.5V46.1753Z" fill="#33A9DC"/>
<path d="M21.5 19.9839H28.6237L29.1149 14.3321H21.5V8.8125H21.5192H34.9985L34.8696 10.2929L33.5476 25.5036H21.5V19.9839Z" fill="white"/>
<path d="M21.5331 34.3176L21.5087 34.3247L15.5136 32.664L15.1304 28.2622H12.2165H9.72583L10.48 36.9283L21.5069 40.0676L21.5331 40.0604V34.3176Z" fill="#EBEBEB"/>
<path d="M28.1656 25.269L27.5177 32.6601L21.5139 34.3208V40.0637L32.5496 36.928L32.6314 35.9958L33.5667 25.269H28.1656Z" fill="white"/>
<path d="M21.5192 8.8125V12.2411V14.3179V14.3321H8.53284H8.51542L8.40743 13.0911L8.16185 10.2929L8.03296 8.8125H21.5192Z" fill="#EBEBEB"/>
<path d="M21.5 19.9839V23.4125V25.4892V25.5035H15.5973H15.5798L15.4719 24.2625L15.228 21.4642L15.0991 19.9839H21.5Z" fill="#EBEBEB"/>
</svg>
