<svg width="48" height="44" viewBox="0 0 48 44" fill="none" xmlns="http://www.w3.org/2000/svg">
<path d="M0 0H48V44H0V0Z" fill="#F7DF1E"/>
<path d="M12.6209 36.7705L16.2942 34.7328C17.0029 35.8845 17.6475 36.859 19.1938 36.859C20.676 36.859 21.6105 36.3275 21.6105 34.2602V20.2012H26.1213V34.3187C26.1213 38.6013 23.3827 40.5507 19.3872 40.5507C15.7787 40.5507 13.6841 38.8375 12.6208 36.7702" fill="black"/>
<path d="M28.571 36.327L32.2439 34.3777C33.2107 35.8251 34.4673 36.8883 36.6904 36.8883C38.5595 36.8883 39.7513 36.0317 39.7513 34.8503C39.7513 33.4325 38.527 32.9304 36.4648 32.1037L35.3374 31.6603C32.083 30.3905 29.9241 28.7956 29.9241 25.4285C29.9241 22.3273 32.5017 19.9644 36.5294 19.9644C39.3971 19.9644 41.4592 20.88 42.9412 23.2725L39.4291 25.3398C38.6558 24.0699 37.8183 23.5679 36.5295 23.5679C35.2085 23.5679 34.3707 24.3358 34.3707 25.3398C34.3707 26.5803 35.2085 27.0826 37.1415 27.8506L38.2691 28.2936C42.1034 29.8 44.2622 31.3356 44.2622 34.7912C44.2622 38.5129 41.0725 40.5506 36.7872 40.5506C32.5985 40.5506 29.8919 38.7195 28.571 36.327Z" fill="black"/>
</svg>
