<svg width="61" height="53" viewBox="0 0 61 53" fill="none" xmlns="http://www.w3.org/2000/svg">
<path d="M0.906499 38.2227C0.831642 38.4423 0.567178 38.5089 0.326469 38.357C0.079934 38.2133 -0.0567817 37.9143 0.0225579 37.6947C0.095622 37.4698 0.360088 37.4073 0.605278 37.5574C0.850917 37.7017 0.99077 38.0031 0.906499 38.2227ZM2.2732 40.2155C2.11183 40.4106 1.79582 40.3206 1.5829 40.0122C1.36057 39.7044 1.31978 39.2927 1.48339 39.0953C1.64924 38.9008 1.95584 38.9919 2.17683 39.2997C2.39871 39.6104 2.44219 40.0181 2.2732 40.2155ZM3.60718 42.7561C3.39965 42.9448 3.06032 42.769 2.85054 42.3765C2.64301 41.984 2.64301 41.5138 2.85503 41.3252C3.0657 41.1371 3.39964 41.3077 3.61256 41.6955C3.81875 42.0944 3.81876 42.564 3.60718 42.7561ZM5.43916 45.2098C5.25359 45.4761 4.85869 45.4043 4.56957 45.0404C4.27373 44.6853 4.19125 44.1807 4.37682 43.9143C4.56508 43.6474 4.96223 43.7216 5.25359 44.0837C5.54719 44.4376 5.63639 44.9458 5.43916 45.2098ZM7.96055 46.6331C7.87807 46.9777 7.49886 47.1354 7.11516 46.9876C6.73191 46.837 6.48134 46.4328 6.55933 46.0841C6.63822 45.7366 7.02103 45.5731 7.40652 45.7302C7.78887 45.8803 8.04034 46.2821 7.96055 46.6331ZM10.7285 46.8959C10.7374 47.2598 10.4129 47.5618 10.0113 47.5676C9.60606 47.5793 9.27839 47.2849 9.27391 46.9275C9.27391 46.5595 9.59217 46.2617 9.99559 46.2529C10.399 46.2412 10.7285 46.535 10.7285 46.8954M13.3059 46.3265C13.3538 46.6804 13.0746 47.0449 12.6748 47.1418C12.2821 47.2365 11.9186 47.0168 11.8688 46.6658C11.8195 46.302 12.1041 45.9381 12.4964 45.8441C12.8966 45.7529 13.2548 45.9661 13.3059 46.3265Z" fill="#FFF8F8"/>
<path fill-rule="evenodd" clip-rule="evenodd" d="M33.0875 0C18.1774 0 6.08765 12.1645 6.08765 27.1709C6.08765 39.1752 13.8244 49.36 24.5513 52.9527C25.9012 53.2047 26.397 52.3635 26.397 51.6461C26.397 50.9982 26.3719 48.8575 26.3598 46.587C18.8484 48.2309 17.2639 43.3816 17.2639 43.3816C16.0352 40.2414 14.2657 39.406 14.2657 39.406C11.8156 37.7196 14.4503 37.7538 14.4503 37.7538C17.1616 37.946 18.5887 40.5542 18.5887 40.5542C20.9974 44.708 24.9054 43.5072 26.4463 42.8129C26.6888 41.0571 27.3881 39.8577 28.1604 39.1796C22.1634 38.4935 15.8596 36.1632 15.8596 25.752C15.8596 22.786 16.914 20.3617 18.6409 18.4594C18.3609 17.7747 17.4366 15.011 18.9031 11.2686C18.9031 11.2686 21.1701 10.5379 26.3287 14.0536C28.483 13.4517 30.7926 13.1501 33.0871 13.1393C35.3817 13.1501 37.6934 13.4517 39.8509 14.0536C45.0044 10.5383 47.2686 11.2683 47.2686 11.2683C48.738 15.0103 47.8141 17.774 47.5333 18.4583C49.2645 20.361 50.3118 22.7849 50.3118 25.7509C50.3118 36.1876 43.9958 38.4848 37.9838 39.1576C38.9521 40.0013 39.8152 41.6546 39.8152 44.1897C39.8152 47.8252 39.7844 50.7516 39.7844 51.6461C39.7844 52.3696 40.2698 53.2162 41.6383 52.9498C52.3617 49.3532 60.0876 39.172 60.0876 27.1712C60.0873 12.1645 47.999 0 33.0875 0Z" fill="#FFF8F8"/>
</svg>
