<svg width="54" height="50" viewBox="0 0 54 50" fill="none" xmlns="http://www.w3.org/2000/svg">
<path d="M5.95698 6.53431C5.8551 3.1348 8.13459 0 11.2158 0H42.7881C45.8693 0 48.1488 3.1348 48.0469 6.53431C47.949 9.79988 48.0761 14.03 48.9923 17.4792C49.9115 20.939 51.4615 23.1259 54 23.4069V26.5931C51.4615 26.8741 49.9115 29.061 48.9923 32.5208C48.0761 35.97 47.949 40.2001 48.0469 43.4658C48.1488 46.8652 45.8693 50 42.7881 50H11.2158C8.13459 50 5.8551 46.8652 5.95709 43.4658C6.05485 40.2001 5.92777 35.97 5.01145 32.5208C4.0924 29.061 2.53863 26.8741 0 26.5931V23.4069C2.53853 23.1259 4.0924 20.939 5.01145 17.4792C5.92777 14.03 6.05486 9.79988 5.95698 6.53431Z" fill="url(#paint0_linear_103_198)"/>
<g filter="url(#filter0_d_103_198)">
<path d="M28.1705 38.2914C33.1588 38.2914 36.1648 35.4534 36.1648 30.7724C36.1648 27.234 34.02 24.6724 30.8352 24.2669V24.1194C33.1751 23.6772 35.0112 21.1524 35.0112 18.3328C35.0112 14.3153 32.2814 11.6982 28.1217 11.6982H18.7625V38.2914H28.1705ZM22.4022 15.0708H27.2444C29.8766 15.0708 31.3715 16.4345 31.3715 18.904C31.3715 21.5394 29.6329 23.0137 26.4807 23.0137H22.4022V15.0708ZM22.4022 34.919V26.1652H27.2118C30.6565 26.1652 32.4439 27.6394 32.4439 30.5144C32.4439 33.3893 30.7053 34.919 27.423 34.919H22.4022Z" fill="url(#paint1_linear_103_198)"/>
<path d="M28.1705 38.2914C33.1588 38.2914 36.1648 35.4534 36.1648 30.7724C36.1648 27.234 34.02 24.6724 30.8352 24.2669V24.1194C33.1751 23.6772 35.0112 21.1524 35.0112 18.3328C35.0112 14.3153 32.2814 11.6982 28.1217 11.6982H18.7625V38.2914H28.1705ZM22.4022 15.0708H27.2444C29.8766 15.0708 31.3715 16.4345 31.3715 18.904C31.3715 21.5394 29.6329 23.0137 26.4807 23.0137H22.4022V15.0708ZM22.4022 34.919V26.1652H27.2118C30.6565 26.1652 32.4439 27.6394 32.4439 30.5144C32.4439 33.3893 30.7053 34.919 27.423 34.919H22.4022Z" stroke="white" stroke-width="0.09375"/>
</g>
<defs>
<filter id="filter0_d_103_198" x="17.2156" y="10.5264" width="20.4961" height="29.687" filterUnits="userSpaceOnUse" color-interpolation-filters="sRGB">
<feFlood flood-opacity="0" result="BackgroundImageFix"/>
<feColorMatrix in="SourceAlpha" type="matrix" values="0 0 0 0 0 0 0 0 0 0 0 0 0 0 0 0 0 0 127 0" result="hardAlpha"/>
<feOffset dy="0.375"/>
<feGaussianBlur stdDeviation="0.75"/>
<feColorMatrix type="matrix" values="0 0 0 0 0 0 0 0 0 0 0 0 0 0 0 0 0 0 0.15 0"/>
<feBlend mode="normal" in2="BackgroundImageFix" result="effect1_dropShadow_103_198"/>
<feBlend mode="normal" in="SourceGraphic" in2="effect1_dropShadow_103_198" result="shape"/>
</filter>
<linearGradient id="paint0_linear_103_198" x1="8.02396" y1="1.32329" x2="60.4678" y2="37.1511" gradientUnits="userSpaceOnUse">
<stop stop-color="#9013FE"/>
<stop offset="1" stop-color="#6610F2"/>
</linearGradient>
<linearGradient id="paint1_linear_103_198" x1="20.4085" y1="13.4486" x2="33.4647" y2="32.452" gradientUnits="userSpaceOnUse">
<stop stop-color="white"/>
<stop offset="1" stop-color="#F1E5FC"/>
</linearGradient>
</defs>
</svg>
