<svg width="37" height="50" viewBox="0 0 37 50" fill="none" xmlns="http://www.w3.org/2000/svg">
<path d="M9.24998 50.0001C14.356 50.0001 18.5 46.2668 18.5 41.6668V33.3335H9.24998C4.14399 33.3335 0 37.0668 0 41.6668C0 46.2668 4.14399 50.0001 9.24998 50.0001Z" fill="#0ACF83"/>
<path d="M0 24.9988C0 20.3988 4.14399 16.6655 9.24998 16.6655H18.5V33.3321H9.24998C4.14399 33.3321 0 29.5988 0 24.9988Z" fill="#A259FF"/>
<path d="M0 8.3333C0 3.73332 4.14399 0 9.24998 0H18.5V16.6666H9.24998C4.14399 16.6666 0 12.9333 0 8.3333Z" fill="#F24E1E"/>
<path d="M18.5 0H27.75C32.856 0 37 3.73332 37 8.3333C37 12.9333 32.856 16.6666 27.75 16.6666H18.5V0Z" fill="#FF7262"/>
<path d="M37 24.9988C37 29.5988 32.856 33.3321 27.75 33.3321C22.644 33.3321 18.5 29.5988 18.5 24.9988C18.5 20.3988 22.644 16.6655 27.75 16.6655C32.856 16.6655 37 20.3988 37 24.9988Z" fill="#1ABCFE"/>
</svg>
